<svg version="1.1" id="svg" xmlns="http://www.w3.org/2000/svg" x="0" y="0" viewBox="0 0 400 400" style="enable-background:new 0 0 400 400" xml:space="preserve"><style>.st1{fill:#db4437}.st3{fill:#4285f4}</style><path d="M297.5 161v97.5H278v-117c10.8 0 19.5 8.7 19.5 19.5z" style="fill-rule:evenodd;clip-rule:evenodd;fill:#f3b304"/><path id="Path_4" class="st1" d="m149.5 228.2-5.8 5.8-5.8-5.8-3.9 3.9 5.8 5.8-5.8 5.8 3.9 3.9 5.8-5.8 5.8 5.8 3.9-3.9-5.8-5.8 5.8-5.8-3.9-3.9zm3.8-17.7-2.7-2.7h-13.7l-2.7 2.7h-9.6v5.5h38.3v-5.5h-9.6zm-26 41.1c0 3 2.5 5.5 5.5 5.5h21.9c3 0 5.5-2.5 5.5-5.5v-32.8h-32.8m5.4 5.4h21.9v27.3h-21.9v-27.3z"/><path id="Path_3" d="m176.9 196.6-6.2-13.6-6.2 13.6-13.6 6.2 13.6 6.2 6.2 13.6 6.2-13.6 13.6-6.2-13.6-6.2zm-3.8 8.7-2.5 5.4-2.5-5.4-5.4-2.5 5.4-2.5 2.5-5.4 2.5 5.4 5.4 2.5-5.4 2.5z" style="fill:#f4b400"/><path id="Path_2" class="st3" d="m197.1 183.5-4.6-10.1-4.6 10.1-10.1 4.6 10.1 4.6 4.6 10.1 4.6-10.1 10.1-4.6-10.1-4.6zm-2.8 6.4-1.8 4-1.8-4-4-1.8 4-1.8 1.8-4 1.8 4 4 1.8-4 1.8z"/><path id="Path_1" d="M260.6 191.2h-2.8v-22c0-3-2.5-5.5-5.5-5.5h-5.5c-3 0-5.5 2.5-5.5 5.5v22h-2.8c-7.6 0-13.8 6.2-13.8 13.8v19.3h49.6V205c.1-7.6-6.1-13.8-13.7-13.8zm-13.7-22h5.5v22h-5.5v-22zm22 49.6h-5.5v-8.3c0-1.5-1.2-2.8-2.8-2.8s-2.8 1.2-2.8 2.8v8.3h-5.5v-8.3c0-1.5-1.2-2.8-2.8-2.8s-2.8 1.2-2.8 2.8v8.3h-5.5v-8.3c0-1.5-1.2-2.8-2.8-2.8s-2.8 1.2-2.8 2.8v8.3h-5.5V205c0-4.5 3.7-8.3 8.3-8.3h22c4.5 0 8.3 3.7 8.3 8.3v13.8h.2z" style="fill:#0f9d58"/><path d="M278 258.5V278c10.8 0 19.5-8.7 19.5-19.5H278z" style="fill-rule:evenodd;clip-rule:evenodd;fill:#0f9d58"/><path d="M102.5 258.5c0 10.8 8.7 19.5 19.5 19.5h156v-19.5" style="fill-rule:evenodd;clip-rule:evenodd;fill:#3cdb84"/><path class="st3" d="M122 258.5v-117h50.4l8.1-19.5h-58.7c-10.7 0-19.4 8.8-19.2 19.5l-.1 117.1c0 4.8 1.7 9.1 4.6 12.5"/><path class="st1" d="m180.5 122 19.5 19.5h78V161h-86.1l-19.5-19.5 8.1-19.5z"/></svg>