<?xml version="1.0" encoding="utf-8"?>
<svg version="1.1" id="svg" xmlns="http://www.w3.org/2000/svg" x="0px" y="0px" viewBox="0 0 400 400"
    style="enable-background:new 0 0 400 400;" xml:space="preserve">
<style type="text/css">
	.st0{fill-rule:evenodd;clip-rule:evenodd;fill:#F3B304;}
	.st1{fill:#DB4437;}
	.st2{fill:#F4B400;}
	.st3{fill:#4285F4;}
	.st4{fill:#0F9D58;}
	.st5{fill-rule:evenodd;clip-rule:evenodd;fill:#0F9D58;}
	.st6{fill-rule:evenodd;clip-rule:evenodd;fill:#3CDB84;}
</style>
<path class="st0" d="M297.5,161v97.5H278V141.5h0C288.8,141.5,297.5,150.2,297.5,161L297.5,161z"/>
<path id="Path_4" class="st1" d="M149.5,228.2l-5.8,5.8l-5.8-5.8l-3.9,3.9l5.8,5.8l-5.8,5.8l3.9,3.9l5.8-5.8l5.8,5.8l3.9-3.9
	l-5.8-5.8l5.8-5.8L149.5,228.2z M153.3,210.5l-2.7-2.7h-13.7l-2.7,2.7h-9.6v5.5h38.3v-5.5H153.3z M127.3,251.6c0,3,2.5,5.5,5.5,5.5
	h21.9c3,0,5.5-2.5,5.5-5.5v-32.8h-32.8V251.6z M132.8,224.2h21.9v27.3h-21.9V224.2z"/>
<path id="Path_3" class="st2" d="M176.9,196.6l-6.2-13.6l-6.2,13.6l-13.6,6.2l13.6,6.2l6.2,13.6l6.2-13.6l13.6-6.2L176.9,196.6z
	 M173.1,205.3l-2.5,5.4l-2.5-5.4l-5.4-2.5l5.4-2.5l2.5-5.4l2.5,5.4l5.4,2.5L173.1,205.3z"/>
<path id="Path_2" class="st3" d="M197.1,183.5l-4.6-10.1l-4.6,10.1l-10.1,4.6l10.1,4.6l4.6,10.1l4.6-10.1l10.1-4.6L197.1,183.5z
	 M194.3,189.9l-1.8,4l-1.8-4l-4-1.8l4-1.8l1.8-4l1.8,4l4,1.8L194.3,189.9z"/>
<path id="Path_1" class="st4" d="M260.6,191.2h-2.8v-22c0-3-2.5-5.5-5.5-5.5h-5.5c-3,0-5.5,2.5-5.5,5.5v22h-2.8
	c-7.6,0-13.8,6.2-13.8,13.8v19.3h49.6V205C274.4,197.4,268.2,191.2,260.6,191.2z M246.9,169.2h5.5v22h-5.5V169.2z M268.9,218.8h-5.5
	v-8.3c0-1.5-1.2-2.8-2.8-2.8s-2.8,1.2-2.8,2.8v8.3h-5.5v-8.3c0-1.5-1.2-2.8-2.8-2.8s-2.8,1.2-2.8,2.8v8.3h-5.5v-8.3
	c0-1.5-1.2-2.8-2.8-2.8s-2.8,1.2-2.8,2.8v8.3h-5.5V205c0-4.5,3.7-8.3,8.3-8.3h22c4.5,0,8.3,3.7,8.3,8.3V218.8z"/>
<path class="st5" d="M278,258.5V278h0c10.8,0,19.5-8.7,19.5-19.5l0,0H278z"/>
<path class="st6" d="M102.5,258.5c0,10.8,8.7,19.5,19.5,19.5h0H278v-19.5H122"/>
<path class="st3" d="M122,258.5V141.5h50.4l8.1-19.5l0,0H122h-0.2c-10.7,0-19.4,8.8-19.2,19.5v0l-0.1,117.1l0,0
	c0,4.8,1.7,9.2,4.6,12.6"/>
<polygon class="st1" points="180.5,122 200,141.5 278,141.5 278,161 191.9,161 172.4,141.5 "/>
</svg>